<svg width="279" height="52" viewBox="0 0 279 52" fill="none" xmlns="http://www.w3.org/2000/svg">
    <path d="M1.5 20.5001V49.0001C4.83333 36.6667 12.7 11.7 17.5 10.5C22.3 9.30005 22.8333 32.3334 22.5 44.0001C23.8333 37.1667 27.3 23.7001 30.5 24.5001C34.5 25.5001 33.5 49.0001 40 49.0001C45.2 49.0001 51.1667 38.0001 53.5 32.5001C56.1667 34.1667 61.6 36.5001 62 32.5001C62.5 27.5001 61.5 24.5001 57.5 24.5001C53.5 24.5001 53 44.0001 57.5 44.0001C62 44.0001 66.5 38.0001 69 32.5001C71.5 27.0001 72 16.5 69 20.5001C66 24.5001 66.5 34.0001 73.5 35.5001C80.5 37.0001 71 49.0001 78 49.0001C83.6 49.0001 85.6667 38.0001 86 32.5001C89.6667 33.1667 96.5 33.5001 94.5 29.5001C92.5 25.5001 89.3333 26.5001 88 27.5001C87.1667 32.6667 86.4 43.1001 90 43.5001C94.5 44.0001 101 37.5001 100.5 32.5001M57.5 15.0001C56.8333 16.5001 56.4 20.0001 60 22.0001M117.5 24.5001C115.667 30.8334 114.4 43.5001 124 43.5001C133.6 43.5001 132 30.8334 130 24.5001C128.5 27.1667 128.4 32.5001 140 32.5001C154.5 32.5001 135.5 12.5001 142 42.0001C143.542 49.0001 156.5 29.5001 154.5 29.5001C154 34.0001 154.3 43.1001 159.5 43.5001C166 44.0001 191.5 8.50007 183.5 6.00007C175.5 3.50007 162.677 24.3532 172.5 44.0001C177 53.0001 187 39.8334 187 29.5001C192.167 29.0001 202.4 23.6001 202 6.00007C201.5 -15.9999 172 49.0005 196 46.5001C199.5 46.1354 205 38.5 202 35.5001C206.833 35.1667 216 33.5001 214 29.5001C211.5 24.5001 200 30.5001 210.5 44.0001C214 48.5 221.667 37.5 222 27.5001C221.167 32.6667 220.7 43.1001 225.5 43.5001C230.3 43.9001 233.833 33.0001 235 27.5001C234.667 33.0001 235.2 44.0001 240 44.0001C244.8 44.0001 247.667 36.3334 248.5 32.5001L254 29.5001C254 26.0001 252.9 19.3 248.5 20.5001C244.1 21.7001 250.333 33.6667 254 39.5C255.333 44.3334 256.7 53.0001 251.5 49.0001C246.3 45.0001 258.333 36.3334 265 32.5001C270 31.8334 278.5 29.9001 272.5 27.5001C265 24.5001 262.5 37.5001 267.5 42.0001C271.5 45.6001 275.833 39.1667 277.5 35.5001" stroke="black" stroke-width="2"/>
    <path d="M159.5 22C159.667 21 159.5 19.1 157.5 19.5C155 20 157.5 24 159.5 22Z" stroke="black" stroke-width="2"/>
</svg>
